<?xml version='1.0' encoding='utf-8'?>
<!-- Generator: Adobe Illustrator 19.1.0, SVG Export Plug-In . SVG Version: 6.00 Build 0)  -->
<svg y="0px" xml:space="preserve" id="Layer_1" viewBox="-240 332 130 130" xmlns="http://www.w3.org/2000/svg" xmlns:xlink="http://www.w3.org/1999/xlink" version="1.1" baseProfile="tiny" x="0px">
 <g id="Layer_1_1_">
  <g>
   <path d="M-198.7,416.6h47.4v-48.9h-47.4V416.6z M-153.3,414.6h-30.6l21.1-20.6c0.3-0.3,0.7-0.5,1.1-0.5&#xd;&#xa;&#x9;&#x9;&#x9;c0.4,0,0.8,0.2,1.1,0.5l7.2,7.1V414.6z M-161.5,373.6c2.4,0,4.4,2,4.4,4.4c0,2.4-2,4.4-4.4,4.4s-4.4-2-4.4-4.4&#xd;&#xa;&#x9;&#x9;&#x9;C-165.9,375.6-164,373.6-161.5,373.6z M-196.7,397.9l10.7-10.5c0.3-0.3,0.7-0.5,1.1-0.5s0.8,0.2,1.1,0.4l12.4,12.2l-15.4,15.1h-10&#xd;&#xa;&#x9;&#x9;&#x9;L-196.7,397.9L-196.7,397.9z" fill="#000000"/>
   <path d="M-175,334.6c-34.4,0-62.4,27.9-62.4,62.4c0,34.4,27.9,62.4,62.4,62.4s62.4-27.9,62.4-62.4&#xd;&#xa;&#x9;&#x9;&#x9;S-140.6,334.6-175,334.6z M-146.7,428.7c0,1.4-1.1,2.6-2.6,2.6h-51.6c-1.4,0-2.6-1.1-2.6-2.6v-63.4c0-1.4,1.1-2.6,2.6-2.6h51.6&#xd;&#xa;&#x9;&#x9;&#x9;c1.4,0,2.6,1.1,2.6,2.6L-146.7,428.7L-146.7,428.7z" fill="#000000"/>
  </g>
 </g>
 <g id="Layer_2">
  <g>
   <path d="M-149.2,362.8h-51.6c-1.4,0-2.6,1.1-2.6,2.6v63.4c0,1.4,1.1,2.6,2.6,2.6h51.6c1.4,0,2.6-1.1,2.6-2.6v-63.4&#xd;&#xa;&#x9;&#x9;&#x9;C-146.7,363.9-147.8,362.8-149.2,362.8z M-151.3,416.6h-47.4v-48.9h47.4V416.6z" fill-opacity="1" fill="#0c465d"/>
   <circle r="4.4" fill-opacity="1" cx="-161.5" cy="378" fill="#0c465d"/>
   <path d="M-171.3,399.5l-12.4-12.2c-0.3-0.3-0.7-0.4-1.1-0.4c-0.4,0-0.8,0.2-1.1,0.5l-10.7,10.5v16.8h10&#xd;&#xa;&#x9;&#x9;&#x9;L-171.3,399.5z" fill-opacity="1" fill="#0c465d"/>
   <path d="M-161.6,393.5c-0.4,0-0.8,0.2-1.1,0.5l-21.1,20.6h30.6V401l-7.2-7.1C-160.8,393.7-161.2,393.5-161.6,393.5&#xd;&#xa;&#x9;&#x9;&#x9;z" fill-opacity="1" fill="#0c465d"/>
  </g>
 </g>
</svg>
