<?xml version='1.0' encoding='utf-8'?>
<!-- Generator: Adobe Illustrator 19.1.0, SVG Export Plug-In . SVG Version: 6.00 Build 0)  -->
<svg y="0px" xml:space="preserve" id="Layer_1" viewBox="-240 332 130 130" xmlns="http://www.w3.org/2000/svg" xmlns:xlink="http://www.w3.org/1999/xlink" version="1.1" baseProfile="tiny" x="0px">
 <g id="Layer_1_1_">
  <g>
   <path d="M-175,340.9c-31,0-56.1,25.1-56.1,56.1c0,31,25.1,56.1,56.1,56.1s56.1-25.1,56.1-56.1&#xd;&#xa;&#x9;&#x9;&#x9;C-118.9,366-144,340.9-175,340.9z M-139.4,421.7c0,1.3-1,2.3-2.3,2.3h-66.7c-1.3,0-2.3-1-2.3-2.3v-49.4c0-1.3,1-2.3,2.3-2.3h66.7&#xd;&#xa;&#x9;&#x9;&#x9;c1.3,0,2.3,1,2.3,2.3V421.7z" fill="#000000"/>
   <path d="M-178.4,405l10.8-7.5c0.7-0.5,0.7-1.3,0-1.8l-10.8-7.5c-0.7-0.5-1.3-0.2-1.3,0.7v15.5&#xd;&#xa;&#x9;&#x9;&#x9;C-179.7,405.2-179.1,405.5-178.4,405z" fill="#000000"/>
   <path d="M-206.5,415.1h62.4v-36.1h-62.4V415.1z M-175,382.1c8,0,14.4,6.5,14.4,14.4c0,8-6.5,14.4-14.4,14.4&#xd;&#xa;&#x9;&#x9;&#x9;c-8,0-14.4-6.5-14.4-14.4C-189.4,388.6-183,382.1-175,382.1z" fill="#000000"/>
  </g>
 </g>
 <g id="Layer_2">
  <g>
   <path d="M-141.7,370h-66.7c-1.3,0-2.3,1-2.3,2.3v49.4c0,1.3,1,2.3,2.3,2.3h66.7c1.3,0,2.3-1,2.3-2.3v-49.4&#xd;&#xa;&#x9;&#x9;&#x9;C-139.4,371-140.4,370-141.7,370z M-144.2,415.1h-62.4v-36.1h62.4C-144.2,378.9-144.2,415.1-144.2,415.1z" fill-opacity="1" fill="#02546e"/>
   <path d="M-175,411c8,0,14.4-6.5,14.4-14.4c0-8-6.5-14.4-14.4-14.4c-8,0-14.4,6.5-14.4,14.4&#xd;&#xa;&#x9;&#x9;&#x9;C-189.4,404.5-183,411-175,411z M-179.7,388.8c0-0.8,0.6-1.1,1.3-0.7l10.8,7.5c0.7,0.5,0.7,1.3,0,1.8l-10.8,7.5&#xd;&#xa;&#x9;&#x9;&#x9;c-0.7,0.5-1.3,0.2-1.3-0.7V388.8z" fill-opacity="1" fill="#02546e"/>
  </g>
 </g>
</svg>
